<svg width="163" height="163" viewBox="0 0 163 163" fill="none" xmlns="http://www.w3.org/2000/svg">
<path d="M152.966 81.4999C152.966 100.454 145.437 118.632 132.034 132.034C118.632 145.437 100.454 152.966 81.5 152.966C72.1149 152.966 62.8217 151.118 54.151 147.526C45.4803 143.935 37.6019 138.67 30.9656 132.034C24.3294 125.398 19.0652 117.52 15.4737 108.849C11.8822 100.178 10.0336 90.885 10.0336 81.4999C10.0336 72.1148 11.8822 62.8216 15.4737 54.151C19.0652 45.4803 24.3294 37.6019 30.9656 30.9656C37.6019 24.3294 45.4803 19.0652 54.151 15.4737C62.8217 11.8822 72.1149 10.0336 81.5 10.0336C100.454 10.0336 118.632 17.5631 132.034 30.9656C145.437 44.3681 152.966 62.5459 152.966 81.4999Z" fill="#80DEEA"/>
<path d="M33.9915 65.5801H34.2806V69.5153H33.9915V65.5801Z" fill="#03A9F4"/>
<path d="M34.9261 66.0881C34.7918 66.3207 33.4802 66.3207 33.3459 66.0881C33.2115 65.8554 33.8674 64.7195 34.136 64.7195C34.4046 64.7195 35.0604 65.8554 34.9261 66.0881Z" fill="#03A9F4"/>
<path d="M35.4935 67.7647C35.2627 68.1644 33.0093 68.1644 32.7785 67.7647C32.5477 67.365 33.6744 65.4134 34.136 65.4134C34.5976 65.4134 35.7243 67.365 35.4935 67.7647Z" fill="#03A9F4"/>
<path d="M15.0102 72.0796H15.1963V74.6127H15.0102V72.0796Z" fill="#03A9F4"/>
<path d="M15.6119 72.4066C15.5254 72.5563 14.6811 72.5563 14.5946 72.4066C14.5081 72.2568 14.9303 71.5256 15.1032 71.5256C15.2762 71.5256 15.6983 72.2568 15.6119 72.4066Z" fill="#03A9F4"/>
<path d="M15.9771 73.4858C15.8285 73.7431 14.3779 73.7431 14.2294 73.4858C14.0808 73.2285 14.8061 71.9722 15.1032 71.9722C15.4003 71.9722 16.1256 73.2285 15.9771 73.4858Z" fill="#03A9F4"/>
<path fill-rule="evenodd" clip-rule="evenodd" d="M25.1361 64.1224L10.1535 79.105C10.1002 79.9027 10.0602 80.7011 10.0336 81.5001C10.0337 120.97 42.0302 152.966 81.5 152.966C108.694 152.929 133.511 137.462 145.521 113.064L105.992 68.9409L80.3425 95.9959L25.1361 64.1224Z" fill="#03A9F4"/>
<path d="M98.5363 67.5792C98.5363 70.0261 97.5642 72.3728 95.834 74.103C94.1038 75.8332 91.7571 76.8053 89.3102 76.8053C86.8633 76.8053 84.5166 75.8332 82.7864 74.103C81.0562 72.3728 80.0842 70.0261 80.0842 67.5792C80.0842 65.1323 81.0562 62.7856 82.7864 61.0554C84.5166 59.3252 86.8633 58.3532 89.3102 58.3532C91.7571 58.3532 94.1038 59.3252 95.834 61.0554C97.5642 62.7856 98.5363 65.1323 98.5363 67.5792Z" fill="#FFF59D"/>
<path d="M138.233 82.1822H138.647V87.8207H138.233V82.1822Z" fill="#00897B"/>
<path d="M139.572 82.9101C139.38 83.2434 137.5 83.2434 137.308 82.9101C137.115 82.5767 138.055 80.9492 138.44 80.9492C138.825 80.9492 139.765 82.5767 139.572 82.9101Z" fill="#00897B"/>
<path d="M140.385 85.3124C140.054 85.8851 136.826 85.8851 136.495 85.3124C136.164 84.7396 137.779 81.9433 138.44 81.9433C139.101 81.9433 140.716 84.7396 140.385 85.3124Z" fill="#00897B"/>
<path d="M141.115 87.9001H141.281V90.165H141.115V87.9001Z" fill="#00897B"/>
<path d="M141.653 88.1925C141.575 88.3264 140.82 88.3264 140.743 88.1925C140.666 88.0586 141.043 87.4048 141.198 87.4048C141.353 87.4048 141.73 88.0586 141.653 88.1925Z" fill="#00897B"/>
<path d="M141.979 89.1574C141.846 89.3875 140.549 89.3875 140.417 89.1574C140.284 88.9274 140.932 87.8042 141.198 87.8042C141.464 87.8042 142.112 88.9274 141.979 89.1574Z" fill="#00897B"/>
<path fill-rule="evenodd" clip-rule="evenodd" d="M68.0815 46.3508L12.9317 101.501C17.2577 116.341 26.2786 129.378 38.6414 138.657C51.0041 147.936 66.0422 152.957 81.5 152.966C97.3139 152.946 112.675 147.681 125.176 137.996C137.677 128.312 146.613 114.754 150.585 99.4468L114.305 63.1676L103.542 81.8105L68.0815 46.3508Z" fill="#4FC3F7"/>
<path fill-rule="evenodd" clip-rule="evenodd" d="M68.0817 46.3516L49.9256 64.5059C56.2213 68.135 65.0834 73.6146 65.0834 73.6146L70.9712 63.4171L76.0718 68.5158L81.26 59.5299L68.0817 46.3516Z" fill="white"/>
</svg>
