<svg width="211" height="211" viewBox="0 0 211 211" fill="none" xmlns="http://www.w3.org/2000/svg">
<g clip-path="url(#clip0_13_2)">
<path d="M114.636 192.091C115.574 190.007 117.658 188.687 119.951 188.687H193.457C196.688 188.687 199.328 186.082 199.328 182.816V87.7724C199.328 84.5767 196.722 81.9017 193.457 81.9017H184.738V174.653C184.773 178.3 181.194 181.635 177.095 180.211C152.813 172.29 129.886 164.752 107.237 179.551C105.743 180.558 104.076 180.662 102.2 180.211C73.1589 170.588 53.7056 165.968 32.3413 179.551C28.5202 181.948 23.3788 179.169 23.2745 174.653V81.9361H17.5081C14.2776 81.9361 11.6375 84.5412 11.6375 87.8067V182.885C11.6375 186.081 14.2426 188.756 17.5081 188.756H88.0964C90.3893 188.756 92.4731 190.076 93.4114 192.16C95.3222 196.329 99.4905 198.969 104.006 198.969C108.522 198.969 112.726 196.26 114.636 192.091Z" fill="#E1645B"/>
<path d="M98.2051 166.698V64.2201C75.8339 56.1608 53.0801 52.2354 35.0512 63.2125V164.857C55.1645 155.79 76.5281 159.403 98.2051 166.698Z" fill="#0FA3FF"/>
<path d="M173.031 166.698V64.22C171.086 63.5945 169.071 62.9696 167.056 62.3441L155.488 83.1177C155.037 83.9512 154.377 84.6809 153.543 85.2022L131.936 98.9934C127.871 101.495 123.008 98.6463 122.973 94.0261L123.356 68.3893C123.356 67.4517 123.599 66.4785 124.12 65.6451L128.983 56.891C122.174 57.725 115.887 59.7395 109.877 63.2479V164.892C131.345 155.095 152.466 160.167 173.031 166.698Z" fill="white"/>
<path d="M134.784 83.3257L146.005 76.1348L149.409 70.0557L138.362 63.9766L134.993 70.0213L134.784 83.3257Z" fill="#0FA3FF"/>
<path d="M176.435 21.4916C178.137 18.4695 177.026 14.6134 173.969 12.9111C170.981 11.2437 167.021 12.4248 165.388 15.3776L163.651 18.5388L174.663 24.6873L176.435 21.4916Z" fill="#0FA3FF"/>
<path d="M144.024 53.7424L155.041 59.8757L168.997 34.8069L157.98 28.6736L144.024 53.7424Z" fill="#E1645B"/>
<path d="M49.3632 83.1172C59.1248 80.9286 69.6849 81.589 83.6148 85.2709C86.5676 86.0351 89.7633 84.3333 90.7708 81.1021C91.6048 77.9758 89.7289 74.7796 86.602 73.9462C70.7269 69.743 58.4639 69.0825 46.7919 71.6882C43.6307 72.383 41.6854 75.5093 42.3802 78.6706C43.11 81.8668 46.2019 83.812 49.3632 83.1172Z" fill="#404A54"/>
<path d="M49.3632 115.354C59.1248 113.166 69.6849 113.826 83.6148 117.508C86.5676 118.272 89.7633 116.57 90.7708 113.339C91.6048 110.213 89.7289 107.017 86.602 106.183C70.7269 101.98 58.4639 101.32 46.7919 103.925C43.6307 104.62 41.6854 107.747 42.3802 110.908C43.11 114.139 46.2019 116.084 49.3632 115.354Z" fill="#404A54"/>
<path d="M193.423 70.2642H184.703V59.9819C184.703 57.4461 183.071 55.2225 180.674 54.424C178.207 53.625 175.567 52.7566 172.858 51.8882L186.649 27.1548C191.478 18.4701 188.352 7.52786 179.667 2.69918C170.114 -2.47664 159.866 1.58739 155.211 9.68159L135.618 44.836C123.842 44.836 113.143 47.6845 103.277 53.625C72.9504 42.9606 48.6684 39.8337 25.9495 55.1188C24.2821 56.1957 23.2745 58.0367 23.2745 60.0168V70.2992H17.5082C7.85078 70.2642 0 78.115 0 87.8073V182.886C0 192.577 7.85078 200.394 17.5082 200.394H84.7266C89.0341 206.716 96.225 210.607 104.041 210.607C111.857 210.607 119.048 206.716 123.355 200.394H193.491C203.183 200.394 210.999 192.543 210.999 182.886V87.8073C210.93 78.115 203.079 70.2642 193.423 70.2642ZM165.423 15.3432C167.056 12.3904 171.016 11.2442 174.004 12.8767C177.026 14.5791 178.172 18.4002 176.47 21.4572L174.733 24.6185L163.721 18.4701L165.423 15.3432ZM157.989 28.7174L169.001 34.8315L155.036 59.9126L144.024 53.7642L157.989 28.7174ZM134.993 70.0214L138.362 63.9422L149.374 70.0907L146.005 76.1698L134.784 83.3607L134.993 70.0214ZM109.877 63.2125C115.887 59.7385 122.174 57.6546 128.983 56.8556L124.085 65.6096C123.634 66.4436 123.39 67.3813 123.321 68.3539L122.939 93.9907C122.974 98.6802 127.837 101.494 131.902 98.958L153.509 85.1667C154.343 84.6804 155.003 83.9163 155.454 83.0823L167.022 62.3087C169.071 62.9342 171.051 63.5591 172.997 64.1846V166.662C152.397 160.131 131.311 155.095 109.843 164.821V63.2125H109.877ZM35.0163 63.2125C53.0457 52.1655 75.799 56.1258 98.1702 64.22V166.698C76.4938 159.403 55.1645 155.721 35.0163 164.857V63.2125ZM199.258 182.886C199.258 186.082 196.653 188.756 193.388 188.756H119.916C117.624 188.756 115.54 190.076 114.601 192.16C112.691 196.329 108.522 198.969 104.006 198.969C99.4905 198.969 95.2873 196.26 93.4114 192.16C92.4737 190.076 90.3893 188.756 88.0964 188.756H17.5082C14.2776 188.756 11.6375 186.151 11.6375 182.886V87.8073C11.6375 84.6117 14.2426 81.9367 17.5082 81.9367H23.3788V174.688C23.4137 179.204 28.5546 181.983 32.4456 179.586C53.7749 166.003 73.2632 170.589 102.304 180.246C104.145 180.732 105.847 180.593 107.341 179.586C129.921 164.787 152.883 172.325 177.2 180.246C181.369 181.67 184.877 178.335 184.842 174.688V81.9361H193.561C196.792 81.9361 199.432 84.5413 199.432 87.8068V182.885L199.258 182.886Z" fill="#404A54"/>
<path d="M90.7708 145.507C91.6048 142.381 89.7289 139.184 86.602 138.351C70.7269 134.148 58.4639 133.487 46.7919 136.093C43.6307 136.788 41.6854 139.914 42.3802 143.075C43.075 146.237 46.2363 148.182 49.3626 147.487C59.1243 145.299 69.6844 145.959 83.6143 149.641C86.5676 150.475 89.7633 148.703 90.7708 145.507Z" fill="#404A54"/>
<path d="M124.397 117.543C138.362 113.861 148.922 113.236 158.649 115.389C161.775 116.084 164.902 114.139 165.632 110.978C166.326 107.816 164.346 104.725 161.22 103.995C149.548 101.39 137.251 102.05 121.41 106.253C118.283 107.087 116.442 110.283 117.241 113.409C118.249 116.57 121.445 118.272 124.397 117.543Z" fill="#404A54"/>
<path d="M158.684 147.557C161.81 148.251 164.937 146.306 165.666 143.145C166.361 139.984 164.381 136.892 161.255 136.162C149.583 133.557 137.285 134.217 121.445 138.42C118.318 139.254 116.477 142.45 117.276 145.576C118.283 148.772 121.479 150.474 124.432 149.745C138.362 146.028 148.922 145.368 158.684 147.557Z" fill="#404A54"/>
</g>
<defs>
<clipPath id="clip0_13_2">
<rect width="211" height="211" fill="white"/>
</clipPath>
</defs>
</svg>
