<svg width="211" height="211" viewBox="0 0 211 211" fill="none" xmlns="http://www.w3.org/2000/svg">
<g clip-path="url(#clip0_12_79)">
<path d="M190.111 99.381C183.992 78.703 172.598 57.181 153.397 46.209C147.067 42.622 140.315 40.512 133.141 39.668C129.976 38.824 126.811 38.191 123.646 37.558C91.152 32.705 50.218 47.053 38.613 80.18C36.503 84.611 35.026 89.253 33.971 93.895C25.531 130.187 37.769 175.13 73.85 191.588C75.116 192.221 76.593 192.643 78.07 192.854C105.078 206.358 137.572 202.982 160.993 183.992C173.231 173.864 186.313 159.516 190.322 143.902C190.744 142.003 191.166 140.104 191.377 138.205C194.542 125.545 194.12 112.041 190.111 99.381ZM158.461 149.388C149.388 160.993 138.416 171.121 123.857 174.497C110.564 177.24 96.427 174.708 85.033 167.534C83.556 166.479 81.657 165.846 79.969 165.635C57.814 150.232 51.484 116.894 61.823 92.207C67.52 78.492 79.547 70.896 93.684 68.153C107.821 65.41 128.288 66.254 141.581 72.584C154.03 78.492 159.305 92.84 162.47 105.711C166.268 121.325 168.8 136.095 158.461 149.388Z" fill="#F15A22"/>
<path d="M168.8 108.243C165.424 97.6929 159.727 87.9869 152.553 79.7579C144.746 70.8959 134.407 64.5659 122.802 62.0339C121.958 61.8229 121.114 61.4009 120.27 61.1899C111.83 60.3459 103.179 61.6119 95.161 64.3549C85.455 68.1529 76.804 74.4829 67.309 78.7029C66.887 78.9139 66.676 78.9139 66.254 78.9139C64.988 79.7579 63.933 80.6019 62.667 81.6569C61.823 82.7119 60.768 83.7669 59.924 84.6109C59.713 84.8219 59.291 85.0329 58.869 85.0329C57.603 86.2989 56.548 87.7759 55.493 89.2529C51.906 98.1149 50.851 107.61 52.539 116.894C50.218 138.627 60.346 159.727 79.125 171.332C99.17 183.781 126.389 181.671 146.012 169.644C167.534 156.351 176.818 132.508 168.8 108.243ZM108.665 127.233C107.61 124.912 106.977 122.38 107.188 119.848C107.821 117.949 107.188 119.004 108.032 118.582C109.298 117.949 114.573 118.371 115.417 119.215C117.738 121.958 113.096 126.178 108.665 127.233Z" fill="#EFE7D2"/>
<path d="M63.089 31.228C68.575 31.228 74.061 25.531 70.685 19.201C67.52 13.504 64.566 5.06396 56.97 5.06396C49.585 5.27496 43.255 10.972 37.769 14.981C32.494 18.99 24.265 22.999 22.366 29.54C21.1 33.127 21.944 37.136 24.476 40.09C25.109 41.778 26.164 43.044 27.43 44.31C29.751 49.374 36.925 51.695 40.723 46.631C41.567 46.209 42.2 45.787 42.833 45.154C43.466 45.576 43.888 45.998 44.099 46.209C44.732 46.842 45.576 47.264 46.209 47.897L50.64 55.282C55.915 63.933 69.841 56.126 64.355 47.264C63.3 45.576 62.245 43.888 61.19 42.2C60.979 40.512 60.346 39.035 59.291 37.769L58.236 36.503C60.346 35.237 61.823 33.549 63.089 31.228Z" fill="#7B78CC"/>
<path d="M137.994 24.8979C134.407 21.9439 129.343 21.0999 125.123 22.7879C120.692 24.6869 117.527 28.9069 117.316 33.7599C116.894 37.9799 121.325 41.9889 125.334 41.7779C125.756 41.7779 125.967 41.7779 126.389 41.5669C127.233 43.2549 128.921 44.5209 130.82 44.9429C133.563 45.5759 136.306 45.1539 138.838 43.6769C140.948 42.1999 142.636 40.0899 143.269 37.5579C144.113 32.9159 142.003 27.8519 137.994 24.8979Z" fill="#7B78CC"/>
<path d="M29.118 95.794C24.898 94.739 20.467 97.271 19.412 101.28L16.247 110.986C15.192 115.206 17.513 119.637 21.733 120.903C25.953 121.958 30.384 119.426 31.439 115.417L34.604 105.711C35.659 101.28 33.338 96.849 29.118 95.794Z" fill="#7B78CC"/>
<path d="M59.924 74.061C58.447 75.749 57.181 77.648 55.704 79.336C54.649 79.336 53.594 79.758 53.172 80.602C48.319 87.565 44.732 95.372 41.989 103.39C40.723 107.188 46.42 108.454 47.686 105.078C47.686 104.867 47.897 104.656 47.897 104.445C49.163 104.445 50.218 103.601 50.64 102.546C52.328 98.537 54.016 94.739 56.126 90.941C58.025 87.565 59.924 84.4 62.034 81.235C63.511 80.813 64.355 79.336 64.144 77.859C64.144 77.648 64.355 77.648 64.355 77.437C66.465 74.905 62.034 71.318 59.924 74.061Z" fill="#F15A22"/>
<path d="M120.903 118.371C120.903 116.683 120.481 114.995 119.215 113.729C117.316 112.041 114.784 111.619 112.674 112.463C110.986 112.674 109.298 113.307 107.821 114.362C106.133 115.206 104.867 116.683 104.234 118.371C102.757 121.747 104.445 125.756 107.821 127.233C109.298 127.866 110.986 127.866 112.674 127.444C114.362 127.444 116.261 126.811 117.738 125.756C119.848 124.279 121.325 121.325 120.903 118.371Z" fill="#7B78CC"/>
<path d="M139.893 43.4661C140.737 40.5121 141.37 37.9801 142.003 35.2371C142.214 34.6041 142.214 33.7601 142.214 33.1271C142.214 32.2831 142.003 31.4391 141.581 30.8061C141.159 29.9621 140.526 29.3291 139.893 28.9071C139.471 28.6961 138.838 28.4851 138.416 28.2741C135.462 27.0081 132.297 26.1641 129.343 25.5311C127.866 25.1091 126.389 25.1091 124.701 24.8981C123.435 24.8981 122.38 25.1091 121.114 25.3201C119.848 25.7421 118.582 26.3751 117.738 27.2191C116.261 28.4851 115.206 30.3841 114.573 32.2831C114.151 33.9711 113.94 35.6591 113.94 37.5581C113.94 37.9801 113.94 38.4021 113.94 38.8241C113.518 38.8241 113.096 38.8241 112.674 38.8241C97.693 38.8241 83.134 42.8331 70.263 50.4291C67.52 45.9981 64.777 41.7781 62.034 37.5581C63.722 36.2921 65.41 35.0261 66.887 33.5491C67.52 32.9161 68.153 32.0721 68.786 31.2281C69.419 30.1731 69.841 28.9071 69.841 27.8521C69.841 27.4301 69.841 27.2191 69.841 26.7971C69.63 25.7421 69.208 24.6871 68.575 23.8431C65.41 18.9901 61.823 14.5591 57.603 10.7611C57.181 10.3391 56.759 10.1281 56.337 9.70606C55.704 9.28406 54.86 8.86206 54.016 8.86206H53.594C52.75 8.86206 52.117 9.07306 51.273 9.28406C50.851 9.49506 50.429 9.70606 50.007 9.91706C42.833 14.3481 35.87 18.9901 29.118 24.0541C27.008 25.5311 24.898 27.2191 22.999 28.9071C20.678 31.0171 18.99 33.5491 18.146 36.5031C17.935 37.1361 17.935 37.9801 17.935 38.6131C17.935 39.8791 18.146 41.3561 18.779 42.4111C19.412 44.0991 20.467 45.5761 21.522 46.8421C22.577 48.1081 23.632 49.1631 24.265 50.2181C25.32 51.6951 26.586 52.7501 28.274 53.5941C29.329 54.2271 30.595 54.4381 32.072 54.4381C33.76 54.4381 35.448 54.0161 36.925 53.3831C38.191 52.7501 39.457 52.1171 40.723 51.2731L43.044 49.7961L54.649 62.8781C44.31 73.0061 36.925 85.8771 33.127 100.014C30.384 98.7481 27.43 98.1151 24.265 98.1151H23.843C22.999 98.1151 21.944 98.326 21.1 98.7481C20.045 99.1701 19.412 99.8031 18.99 100.647C18.779 101.069 18.568 101.702 18.357 102.335C17.091 105.922 16.247 109.72 16.036 113.729C16.036 115.628 16.458 117.738 17.091 119.637C17.302 120.481 17.935 121.325 18.568 121.958C18.99 122.38 19.623 122.802 20.256 123.013C20.678 123.224 21.1 123.224 21.522 123.435C24.476 124.279 27.43 124.279 30.595 123.646C31.439 142.003 37.98 159.516 49.585 173.864C61.401 189.056 78.07 199.606 96.638 204.037C102.335 205.303 108.032 205.936 113.729 205.936C130.82 205.936 147.489 200.661 161.415 190.744C175.974 180.616 186.735 165.846 192.01 148.755C194.331 140.948 195.597 132.719 195.597 124.49C195.597 106.766 189.9 89.4641 179.772 74.9051C169.855 60.5571 155.929 49.5851 139.893 43.4661ZM120.059 39.0351C120.059 38.6131 120.059 37.9801 120.059 37.5581C120.059 36.2921 120.059 35.0261 120.481 33.9711C120.692 33.1271 121.114 32.4941 121.747 31.8611C122.169 31.6501 122.591 31.4391 123.013 31.2281C123.646 31.0171 124.279 31.0171 124.912 31.0171C125.967 31.0171 127.233 31.2281 128.288 31.4391C131.031 32.0721 133.774 32.9161 136.517 33.7601C135.884 36.2921 135.251 39.0351 134.618 41.5671C129.554 40.5121 124.912 39.4571 120.059 39.0351ZM37.136 46.2091C36.081 46.8421 35.237 47.4751 34.182 47.8971C33.338 48.3191 32.494 48.5301 31.65 48.5301C31.228 48.5301 30.806 48.5301 30.595 48.3191C29.751 47.8971 29.118 47.2641 28.696 46.4201C27.43 44.9431 26.164 43.4661 25.109 42.2001C24.687 41.5671 24.265 40.9341 24.054 40.3011C23.843 39.8791 23.632 39.2461 23.632 38.8241C23.632 38.6131 23.632 38.4021 23.632 38.1911C24.265 36.2921 25.32 34.8151 26.797 33.5491C28.485 31.8611 30.384 30.3841 32.283 29.1181C39.035 24.2651 45.787 19.6231 52.75 15.4031C52.961 15.4031 52.961 15.1921 53.172 15.1921L53.383 15.4031C57.181 18.9901 60.557 22.9991 63.3 27.2191C63.511 27.4301 63.511 27.6411 63.722 27.8521V28.0631C63.722 28.2741 63.511 28.4851 63.511 28.4851C63.3 28.9071 63.089 29.1181 62.667 29.5401C60.135 31.8611 57.181 33.9711 54.016 35.8701L37.136 46.2091ZM57.181 40.7231L65.41 53.5941C64.355 54.2271 63.511 55.0711 62.456 55.7041C61.19 56.7591 59.924 57.8141 58.658 58.8691L47.897 46.6311L57.181 40.7231ZM29.118 117.527C27.008 117.949 24.898 117.949 22.788 117.316H22.577C22.155 116.05 21.944 114.784 21.944 113.518C22.155 110.353 22.788 106.977 24.054 104.023C26.375 104.023 28.696 104.656 30.806 105.5C31.017 105.5 31.228 105.711 31.65 105.711C31.017 109.509 30.595 113.518 30.384 117.316C29.962 117.527 29.54 117.527 29.118 117.527ZM185.891 146.645C181.038 162.47 171.121 175.974 157.406 185.469C144.535 194.542 128.921 199.606 113.096 199.606C107.821 199.606 102.546 198.973 97.271 197.918C79.969 193.909 64.566 183.992 53.594 169.855C42.2 155.718 36.081 138.205 35.87 120.059C35.87 114.151 36.503 108.454 37.98 102.757C41.989 85.8771 51.906 70.6851 65.832 60.3461C79.336 50.2181 95.794 44.5211 112.674 44.5211C120.903 44.5211 128.921 45.7871 136.728 48.5301C152.131 54.0161 165.213 64.3551 174.497 77.8591C183.992 91.3631 189.056 107.61 189.267 124.068C189.267 131.875 188.212 139.471 185.891 146.645Z" fill="black"/>
<path d="M113.096 60.346C103.179 60.346 93.262 62.456 84.189 66.465C75.538 70.263 67.731 75.749 61.401 82.923C58.236 86.51 55.704 90.519 53.594 94.739C49.796 102.124 47.686 110.142 47.475 118.371C47.475 119.004 47.475 119.426 47.475 120.059C47.686 133.563 52.539 146.645 60.979 156.984C68.997 167.323 79.758 175.13 92.207 179.772C99.803 182.515 108.032 183.992 116.261 183.992C125.334 183.992 134.407 182.093 142.847 178.506C151.92 174.497 159.516 168.167 165.213 159.938C171.965 150.021 175.552 137.994 175.552 125.967C175.552 107.61 168.167 89.886 155.085 77.015C143.691 66.043 128.71 60.135 113.096 60.346ZM159.938 156.351C154.874 163.525 148.122 169.222 140.104 172.809C132.508 176.185 124.279 177.873 115.839 177.873C108.454 177.873 100.858 176.607 93.895 174.075C82.712 169.855 72.795 162.681 65.41 153.186C57.814 143.691 53.383 132.086 53.172 119.848C53.172 119.426 53.172 119.004 53.172 118.371C53.383 110.986 55.282 103.812 58.658 97.271C60.557 93.473 62.878 89.886 65.621 86.721C71.318 80.391 78.492 75.116 86.299 71.74C94.739 68.153 103.601 66.043 112.674 66.043C126.6 65.832 140.104 71.107 150.232 80.813C162.048 92.629 168.8 108.876 168.8 125.545C169.222 136.517 166.057 147.278 159.938 156.351Z" fill="black"/>
<path d="M130.187 76.382C128.499 75.96 127.022 77.015 126.6 78.492C124.49 86.51 121.747 94.317 118.582 101.913C117.738 104.023 116.894 106.133 116.05 108.032C115.628 107.821 114.995 107.821 114.362 107.821H113.94C112.252 108.032 110.564 108.665 109.087 109.72C106.977 111.197 105.289 113.096 104.023 115.417C103.601 116.261 103.179 117.316 102.968 118.371C95.583 115.628 87.987 113.518 80.391 111.83C78.703 111.408 77.226 112.463 76.804 114.151C76.382 115.839 77.437 117.316 79.125 117.738C86.721 119.426 94.106 121.747 101.28 124.279C101.702 124.49 101.913 124.49 102.335 124.49C102.335 124.912 102.335 125.123 102.546 125.545C102.968 127.233 103.601 128.921 104.867 130.398C106.133 131.664 107.61 132.719 109.087 133.352C110.353 133.774 111.619 133.985 112.885 133.985C114.995 133.985 116.894 133.563 118.793 132.508C120.903 131.453 122.591 129.765 123.857 127.655C125.123 125.545 125.756 123.224 125.756 120.903C125.756 120.692 125.756 120.27 125.756 120.059C125.545 117.738 124.701 115.417 123.435 113.518C122.802 112.674 122.169 112.041 121.325 111.197L123.857 104.445C127.233 96.638 129.976 88.409 132.086 80.18C132.719 78.492 131.875 76.804 130.187 76.382ZM119.004 124.068C118.371 125.123 117.316 126.178 116.261 126.811C115.206 127.233 114.151 127.655 113.096 127.655C112.463 127.655 111.83 127.655 111.408 127.444C110.775 127.233 110.142 126.811 109.509 126.178C109.087 125.756 108.665 125.123 108.665 124.279L105.5 124.701L108.454 124.068C108.454 123.646 108.243 123.013 108.243 122.591C108.243 121.114 108.665 119.426 109.298 118.16C109.931 116.683 110.986 115.628 112.252 114.784C112.674 114.362 113.307 114.151 113.729 114.151C113.94 115.839 115.206 117.105 116.894 116.894C117.316 116.894 117.738 116.683 118.16 116.472C118.16 116.472 118.16 116.683 118.371 116.683C119.004 117.738 119.637 118.793 119.637 120.059V120.481C120.059 121.747 119.637 123.013 119.004 124.068Z" fill="black"/>
</g>
<defs>
<clipPath id="clip0_12_79">
<rect width="211" height="211" fill="white"/>
</clipPath>
</defs>
</svg>
