<svg width="211" height="211" viewBox="0 0 211 211" fill="none" xmlns="http://www.w3.org/2000/svg">
<path d="M131.875 178.031C131.875 192.603 120.066 204.406 105.5 204.406C90.9344 204.406 79.125 192.597 79.125 178.031H131.875Z" fill="white"/>
<path d="M32.9688 171.438H178.031V151.656L158.25 125.281V85.7188C158.25 56.5876 134.631 32.9688 105.5 32.9688C76.3688 32.9688 52.75 56.5876 52.75 85.7188V125.281L32.9688 151.656V171.438Z" fill="#FAA85F"/>
<path d="M164.844 123.086V85.7188C164.844 59.9372 148.293 38.0064 125.281 29.8367V19.7812C125.281 8.87519 116.406 0 105.5 0C94.5939 0 85.7188 8.87519 85.7188 19.7812V29.8367C62.7066 38.013 46.1562 59.9438 46.1562 85.7583C46.1562 86.4441 46.1562 114.909 46.1562 123.079L26.375 149.461V178.031H72.5312C72.5312 196.21 87.321 211 105.5 211C123.679 211 138.469 196.21 138.469 178.031H184.625V149.461L164.844 123.086ZM98.9062 26.375V19.7812C98.9062 16.1415 101.867 13.1875 105.5 13.1875C109.133 13.1875 112.094 16.1415 112.094 19.7812V26.375H98.9062ZM105.5 197.812C94.5939 197.812 85.7188 188.937 85.7188 178.031H125.281C125.281 188.937 116.406 197.812 105.5 197.812ZM171.438 164.844H39.5625V153.852L56.9304 130.695C59.3438 128.769 59.3438 124.602 59.3438 119.096V91.8971C59.3438 89.5827 59.3437 87.4991 59.1657 85.7188H59.3438C59.3438 60.2735 80.0481 39.5625 105.5 39.5625C130.952 39.5625 151.656 60.2735 151.656 85.7188V127.477L171.438 153.852V164.844Z" fill="#00384E"/>
<path d="M85.7188 79.125H72.5312V125.281H85.7188V79.125Z" fill="white"/>
</svg>
