<svg width="211" height="211" viewBox="0 0 211 211" fill="none" xmlns="http://www.w3.org/2000/svg">
<path d="M102.309 166.474C95.414 150.579 99.0274 140.215 102.216 131.071C105.254 122.357 108.123 114.127 102.309 100.724L108.691 97.9563C115.586 113.851 111.973 124.216 108.785 133.361C105.746 142.074 102.877 150.304 108.691 163.707L102.309 166.474Z" fill="#9CAC74"/>
<path d="M105.5 0V103.052C125.227 91.3238 137.999 72.612 137.999 51.526C137.999 30.4396 125.227 11.7233 105.5 0Z" fill="#9CAC74"/>
<path d="M105.5 0C116.783 11.7233 124.087 30.4396 124.087 51.5256C124.087 72.6116 116.783 91.3234 105.5 103.052L86.9505 51.526L105.5 0Z" fill="#BCC987"/>
<path d="M73.0006 51.5252C73.0006 72.6104 85.7711 91.3243 105.5 103.05V0C85.7707 11.7257 73.0006 30.44 73.0006 51.5252Z" fill="#D4ED85"/>
<path d="M164.589 182.675C163.087 182.675 161.607 182.754 160.147 182.907L190.911 211H204.823C198.91 194.491 183.129 182.675 164.589 182.675Z" fill="#705750"/>
<path d="M190.911 211H6.17711C12.0896 194.491 27.8705 182.675 46.4109 182.675C52.0684 182.675 57.4711 183.779 62.4144 185.777C71.8884 172.157 87.6507 163.235 105.5 163.235C123.349 163.235 139.112 172.157 148.586 185.777C152.217 184.307 156.098 183.324 160.147 182.907C174.407 184.627 186.241 195.831 190.911 211Z" fill="#87635C"/>
<path d="M42.7798 200.311C44.7008 200.311 46.258 198.754 46.258 196.833C46.258 194.912 44.7008 193.355 42.7798 193.355C40.8589 193.355 39.3016 194.912 39.3016 196.833C39.3016 198.754 40.8589 200.311 42.7798 200.311Z" fill="#705750"/>
<path d="M137.382 200.311C139.303 200.311 140.86 198.754 140.86 196.833C140.86 194.912 139.303 193.355 137.382 193.355C135.461 193.355 133.904 194.912 133.904 196.833C133.904 198.754 135.461 200.311 137.382 200.311Z" fill="#705750"/>
<path d="M125.325 188.718C127.245 188.718 128.803 187.16 128.803 185.239C128.803 183.318 127.245 181.761 125.325 181.761C123.404 181.761 121.846 183.318 121.846 185.239C121.846 187.16 123.404 188.718 125.325 188.718Z" fill="#705750"/>
</svg>
