<svg width="211" height="211" viewBox="0 0 211 211" fill="none" xmlns="http://www.w3.org/2000/svg">
<path d="M155.101 211H55.8985C52.3379 210.984 49.4597 208.092 49.4531 204.532V6.44869C49.4696 2.89466 52.3445 0.0164844 55.8985 0H155.101C158.656 0.0164844 161.53 2.89466 161.547 6.44869V204.532C161.54 208.092 158.662 210.984 155.101 211Z" fill="#E21B1B"/>
<path d="M155.81 17.358H55.193V188.041H155.81V17.358Z" fill="black"/>
<path d="M110.693 7.26956C111.632 7.26956 112.394 6.50792 112.394 5.56838C112.394 4.62884 111.632 3.86719 110.693 3.86719C109.753 3.86719 108.991 4.62884 108.991 5.56838C108.991 6.50792 109.753 7.26956 110.693 7.26956Z" fill="black"/>
<path d="M121.529 13.4413H99.8558C99.1502 13.4413 98.5799 12.871 98.5766 12.1654V11.3181C98.5799 10.6126 99.1469 10.0455 99.8525 10.0422H121.526C122.232 10.0455 122.799 10.6126 122.802 11.3181V12.1687C122.795 12.871 122.232 13.4347 121.529 13.4413Z" fill="black"/>
<path d="M93.4664 13.4446C94.406 13.4446 95.1676 12.683 95.1676 11.7434C95.1676 10.8039 94.406 10.0422 93.4664 10.0422C92.5269 10.0422 91.7652 10.8039 91.7652 11.7434C91.7652 12.683 92.5269 13.4446 93.4664 13.4446Z" fill="black"/>
<g opacity="0.15">
<path d="M55.193 88.7255V17.358H139.985L55.193 88.7255Z" fill="white"/>
</g>
<path d="M105.5 207.96C110.158 207.96 113.933 204.185 113.933 199.527C113.933 194.869 110.158 191.094 105.5 191.094C100.842 191.094 97.0666 194.869 97.0666 199.527C97.0666 204.185 100.842 207.96 105.5 207.96Z" fill="black"/>
<path d="M105.5 203.533C103.278 203.533 101.478 201.732 101.478 199.51C101.478 197.288 103.278 195.488 105.5 195.488C107.722 195.488 109.522 197.288 109.522 199.51C109.519 201.732 107.722 203.529 105.5 203.533ZM105.5 196.589C103.888 196.593 102.579 197.901 102.582 199.514C102.586 201.126 103.894 202.435 105.507 202.431C107.119 202.428 108.428 201.119 108.424 199.507C108.421 197.895 107.112 196.586 105.5 196.589Z" fill="white"/>
<path d="M66.4485 24.6145H76.9557C78.6272 24.6145 79.9822 25.9695 79.9822 27.641V38.1482C79.9822 39.8197 78.6272 41.1747 76.9557 41.1747H66.4485C64.777 41.1747 63.422 39.8197 63.422 38.1482V27.641C63.422 25.9695 64.777 24.6145 66.4485 24.6145Z" fill="#CCCCCC"/>
<path d="M88.9794 24.6145H99.4865C101.158 24.6145 102.513 25.9695 102.513 27.641V38.1482C102.513 39.8197 101.158 41.1747 99.4865 41.1747H88.9794C87.3078 41.1747 85.9528 39.8197 85.9528 38.1482V27.641C85.9528 25.9695 87.3078 24.6145 88.9794 24.6145Z" fill="#E21B1B"/>
<path d="M111.514 24.6145H122.021C123.692 24.6145 125.047 25.9695 125.047 27.641V38.1482C125.047 39.8197 123.692 41.1747 122.021 41.1747H111.514C109.842 41.1747 108.487 39.8197 108.487 38.1482V27.641C108.487 25.9695 109.842 24.6145 111.514 24.6145Z" fill="#666666"/>
<path d="M134.048 24.6145H144.555C146.226 24.6145 147.581 25.9695 147.581 27.641V38.1482C147.581 39.8197 146.226 41.1747 144.555 41.1747H134.048C132.376 41.1747 131.021 39.8197 131.021 38.1482V27.641C131.021 25.9695 132.376 24.6145 134.048 24.6145Z" fill="#CCCCCC"/>
<path d="M66.4485 47.5409H76.9557C78.6272 47.5409 79.9822 48.8959 79.9822 50.5674V61.0746C79.9822 62.7461 78.6272 64.1011 76.9557 64.1011H66.4485C64.777 64.1011 63.422 62.7461 63.422 61.0746V50.5674C63.422 48.8959 64.777 47.5409 66.4485 47.5409Z" fill="#666666"/>
<path d="M88.9794 47.5409H99.4865C101.158 47.5409 102.513 48.8959 102.513 50.5674V61.0746C102.513 62.7461 101.158 64.1011 99.4865 64.1011H88.9794C87.3078 64.1011 85.9528 62.7461 85.9528 61.0746V50.5674C85.9528 48.8959 87.3078 47.5409 88.9794 47.5409Z" fill="white"/>
<path d="M111.514 47.5409H122.021C123.692 47.5409 125.047 48.8959 125.047 50.5674V61.0746C125.047 62.7461 123.692 64.1011 122.021 64.1011H111.514C109.842 64.1011 108.487 62.7461 108.487 61.0746V50.5674C108.487 48.8959 109.842 47.5409 111.514 47.5409Z" fill="#E21B1B"/>
<path d="M134.048 47.5409H144.555C146.226 47.5409 147.581 48.8959 147.581 50.5674V61.0746C147.581 62.7461 146.226 64.1011 144.555 64.1011H134.048C132.376 64.1011 131.021 62.7461 131.021 61.0746V50.5674C131.021 48.8959 132.376 47.5409 134.048 47.5409Z" fill="#E21B1B"/>
<path d="M66.4485 70.4674H76.9557C78.6272 70.4674 79.9822 71.8224 79.9822 73.4939V84.0011C79.9822 85.6726 78.6272 87.0276 76.9557 87.0276H66.4485C64.777 87.0276 63.422 85.6726 63.422 84.0011V73.4939C63.422 71.8224 64.777 70.4674 66.4485 70.4674Z" fill="#CCCCCC"/>
<path d="M88.9794 70.4674H99.4865C101.158 70.4674 102.513 71.8224 102.513 73.4939V84.0011C102.513 85.6726 101.158 87.0276 99.4865 87.0276H88.9794C87.3078 87.0276 85.9528 85.6726 85.9528 84.0011V73.4939C85.9528 71.8224 87.3078 70.4674 88.9794 70.4674Z" fill="#E21B1B"/>
<path d="M111.514 70.4674H122.021C123.692 70.4674 125.047 71.8224 125.047 73.4939V84.0011C125.047 85.6726 123.692 87.0276 122.021 87.0276H111.514C109.842 87.0276 108.487 85.6726 108.487 84.0011V73.4939C108.487 71.8224 109.842 70.4674 111.514 70.4674Z" fill="white"/>
<path d="M134.048 70.4674H144.555C146.226 70.4674 147.581 71.8224 147.581 73.4939V84.0011C147.581 85.6726 146.226 87.0276 144.555 87.0276H134.048C132.376 87.0276 131.021 85.6726 131.021 84.0011V73.4939C131.021 71.8224 132.376 70.4674 134.048 70.4674Z" fill="#CCCCCC"/>
<path d="M66.4485 93.3972H76.9557C78.6272 93.3972 79.9822 94.7522 79.9822 96.4237V106.931C79.9822 108.602 78.6272 109.957 76.9557 109.957H66.4485C64.777 109.957 63.422 108.602 63.422 106.931V96.4237C63.422 94.7522 64.777 93.3972 66.4485 93.3972Z" fill="#E21B1B"/>
<path d="M88.9794 93.3972H99.4865C101.158 93.3972 102.513 94.7522 102.513 96.4237V106.931C102.513 108.602 101.158 109.957 99.4865 109.957H88.9794C87.3078 109.957 85.9528 108.602 85.9528 106.931V96.4237C85.9528 94.7522 87.3078 93.3972 88.9794 93.3972Z" fill="white"/>
<path d="M111.514 93.3972H122.021C123.692 93.3972 125.047 94.7522 125.047 96.4237V106.931C125.047 108.602 123.692 109.957 122.021 109.957H111.514C109.842 109.957 108.487 108.602 108.487 106.931V96.4237C108.487 94.7522 109.842 93.3972 111.514 93.3972Z" fill="#E21B1B"/>
<path d="M134.048 93.3972H144.555C146.226 93.3972 147.581 94.7522 147.581 96.4237V106.931C147.581 108.602 146.226 109.957 144.555 109.957H134.048C132.376 109.957 131.021 108.602 131.021 106.931V96.4237C131.021 94.7522 132.376 93.3972 134.048 93.3972Z" fill="#CCCCCC"/>
<path d="M66.4485 116.324H76.9557C78.6272 116.324 79.9822 117.679 79.9822 119.35V129.857C79.9822 131.529 78.6272 132.884 76.9557 132.884H66.4485C64.777 132.884 63.422 131.529 63.422 129.857V119.35C63.422 117.679 64.777 116.324 66.4485 116.324Z" fill="#666666"/>
<path d="M88.9794 116.324H99.4865C101.158 116.324 102.513 117.679 102.513 119.35V129.857C102.513 131.529 101.158 132.884 99.4865 132.884H88.9794C87.3078 132.884 85.9528 131.529 85.9528 129.857V119.35C85.9528 117.679 87.3078 116.324 88.9794 116.324Z" fill="#E21B1B"/>
<path d="M111.513 115.324H122.021C123.692 115.324 125.047 116.679 125.047 118.35V128.857C125.047 130.529 123.692 131.884 122.021 131.884H111.513C109.842 131.884 108.487 130.529 108.487 128.857V118.35C108.487 116.679 109.842 115.324 111.513 115.324Z" fill="#666666"/>
<path d="M134.048 116.324H144.555C146.226 116.324 147.581 117.679 147.581 119.35V129.857C147.581 131.529 146.226 132.884 144.555 132.884H134.048C132.376 132.884 131.021 131.529 131.021 129.857V119.35C131.021 117.679 132.376 116.324 134.048 116.324Z" fill="white"/>
<path d="M66.4485 139.253H76.9557C78.6272 139.253 79.9822 140.608 79.9822 142.28V152.787C79.9822 154.459 78.6272 155.814 76.9557 155.814H66.4485C64.777 155.814 63.422 154.459 63.422 152.787V142.28C63.422 140.608 64.777 139.253 66.4485 139.253Z" fill="white"/>
<path d="M88.9794 139.253H99.4865C101.158 139.253 102.513 140.608 102.513 142.28V152.787C102.513 154.459 101.158 155.814 99.4865 155.814H88.9794C87.3078 155.814 85.9528 154.459 85.9528 152.787V142.28C85.9528 140.608 87.3078 139.253 88.9794 139.253Z" fill="#CCCCCC"/>
<path d="M111.514 139.253H122.021C123.692 139.253 125.047 140.608 125.047 142.28V152.787C125.047 154.459 123.692 155.814 122.021 155.814H111.514C109.842 155.814 108.487 154.459 108.487 152.787V142.28C108.487 140.608 109.842 139.253 111.514 139.253Z" fill="#E21B1B"/>
<path d="M134.048 139.253H144.555C146.226 139.253 147.581 140.608 147.581 142.28V152.787C147.581 154.459 146.226 155.814 144.555 155.814H134.048C132.376 155.814 131.021 154.459 131.021 152.787V142.28C131.021 140.608 132.376 139.253 134.048 139.253Z" fill="#CCCCCC"/>
<path d="M66.4485 162.18H76.9557C78.6272 162.18 79.9822 163.535 79.9822 165.206V175.714C79.9822 177.385 78.6272 178.74 76.9557 178.74H66.4485C64.777 178.74 63.422 177.385 63.422 175.714V165.206C63.422 163.535 64.777 162.18 66.4485 162.18Z" fill="#E21B1B"/>
<path d="M88.9794 162.18H99.4865C101.158 162.18 102.513 163.535 102.513 165.206V175.714C102.513 177.385 101.158 178.74 99.4865 178.74H88.9794C87.3078 178.74 85.9528 177.385 85.9528 175.714V165.206C85.9528 163.535 87.3078 162.18 88.9794 162.18Z" fill="white"/>
<path d="M111.514 162.18H122.021C123.692 162.18 125.047 163.535 125.047 165.206V175.714C125.047 177.385 123.692 178.74 122.021 178.74H111.514C109.842 178.74 108.487 177.385 108.487 175.714V165.206C108.487 163.535 109.842 162.18 111.514 162.18Z" fill="#E21B1B"/>
<path d="M134.048 162.18H144.555C146.226 162.18 147.581 163.535 147.581 165.206V175.714C147.581 177.385 146.226 178.74 144.555 178.74H134.048C132.376 178.74 131.021 177.385 131.021 175.714V165.206C131.021 163.535 132.376 162.18 134.048 162.18Z" fill="#E21B1B"/>
</svg>
