<svg width="30" height="31" viewBox="0 0 30 31" fill="none" xmlns="http://www.w3.org/2000/svg">
<path opacity="0.4" d="M22.9369 25.1C22.2494 26.8625 20.5744 28 18.6869 28H11.3119C9.41186 28 7.74936 26.8625 7.06186 25.1C6.37436 23.325 6.84937 21.3625 8.24937 20.0875L13.3119 15.5H16.6994L21.7494 20.0875C23.1494 21.3625 23.6119 23.325 22.9369 25.1Z" fill="white"/>
<path d="M17.275 23.175H12.725C12.25 23.175 11.875 22.7875 11.875 22.325C11.875 21.85 12.2625 21.475 12.725 21.475H17.275C17.75 21.475 18.125 21.8625 18.125 22.325C18.125 22.7875 17.7375 23.175 17.275 23.175Z" fill="white"/>
<path d="M22.9382 5.9C22.2507 4.1375 20.5757 3 18.6882 3H11.3133C9.42581 3 7.75081 4.1375 7.06331 5.9C6.38831 7.675 6.85081 9.6375 8.26331 10.9125L13.3132 15.5H16.7007L21.7507 10.9125C23.1507 9.6375 23.6132 7.675 22.9382 5.9ZM17.2757 9.5375H12.7257C12.2508 9.5375 11.8758 9.15 11.8758 8.6875C11.8758 8.225 12.2633 7.8375 12.7257 7.8375H17.2757C17.7507 7.8375 18.1257 8.225 18.1257 8.6875C18.1257 9.15 17.7382 9.5375 17.2757 9.5375Z" fill="white"/>
</svg>
