<svg width="30" height="30" viewBox="0 0 30 30" fill="none" xmlns="http://www.w3.org/2000/svg">
<path opacity="0.4" d="M22.9369 24.6C22.2494 26.3625 20.5744 27.5 18.6869 27.5H11.3119C9.41186 27.5 7.74936 26.3625 7.06186 24.6C6.37436 22.825 6.84937 20.8625 8.24937 19.5875L13.3119 15H16.6994L21.7494 19.5875C23.1494 20.8625 23.6119 22.825 22.9369 24.6Z" fill="#292D32"/>
<path d="M17.275 22.675H12.725C12.25 22.675 11.875 22.2875 11.875 21.825C11.875 21.35 12.2625 20.975 12.725 20.975H17.275C17.75 20.975 18.125 21.3625 18.125 21.825C18.125 22.2875 17.7375 22.675 17.275 22.675Z" fill="#292D32"/>
<path d="M22.9382 5.4C22.2507 3.6375 20.5757 2.5 18.6882 2.5H11.3133C9.42581 2.5 7.75081 3.6375 7.06331 5.4C6.38831 7.175 6.85081 9.1375 8.26331 10.4125L13.3132 15H16.7007L21.7507 10.4125C23.1507 9.1375 23.6132 7.175 22.9382 5.4ZM17.2757 9.0375H12.7257C12.2508 9.0375 11.8758 8.65 11.8758 8.1875C11.8758 7.725 12.2633 7.3375 12.7257 7.3375H17.2757C17.7507 7.3375 18.1257 7.725 18.1257 8.1875C18.1257 8.65 17.7382 9.0375 17.2757 9.0375Z" fill="#292D32"/>
</svg>
