<svg width="25" height="25" viewBox="0 0 25 25" fill="none" xmlns="http://www.w3.org/2000/svg">
<path fill-rule="evenodd" clip-rule="evenodd" d="M17.7083 2.08325C20.5848 2.08325 22.9166 4.41511 22.9166 7.29158V17.7083C22.9166 20.5847 20.5848 22.9166 17.7083 22.9166H7.29165C4.41517 22.9166 2.08331 20.5847 2.08331 17.7083V7.29158C2.08331 4.41511 4.41517 2.08325 7.29165 2.08325H17.7083ZM8.33331 7.29158C7.75802 7.29158 7.29165 7.75796 7.29165 8.33325V16.6666C7.29165 17.2419 7.75802 17.7083 8.33331 17.7083C8.9086 17.7083 9.37498 17.2419 9.37498 16.6666V8.33325C9.37498 7.75796 8.90861 7.29158 8.33331 7.29158ZM16.6666 13.5416C16.0913 13.5416 15.625 14.0079 15.625 14.5833V16.6666C15.625 17.2419 16.0913 17.7083 16.6666 17.7083C17.242 17.7083 17.7083 17.2419 17.7083 16.6666V14.5833C17.7083 14.0079 17.242 13.5416 16.6666 13.5416ZM11.4583 11.4583C11.4583 10.8829 11.9247 10.4166 12.5 10.4166C13.0753 10.4166 13.5416 10.8829 13.5416 11.4583V16.6666C13.5416 17.2419 13.0753 17.7083 12.5 17.7083C11.9247 17.7083 11.4583 17.2419 11.4583 16.6666V11.4583Z" fill="white"/>
</svg>
