<svg width="30" height="31" viewBox="0 0 30 31" fill="none" xmlns="http://www.w3.org/2000/svg">
<path fill-rule="evenodd" clip-rule="evenodd" d="M21.25 3C24.7017 3 27.5 5.79822 27.5 9.25V21.75C27.5 25.2017 24.7017 28 21.25 28H8.75C5.29822 28 2.5 25.2017 2.5 21.75V9.25C2.5 5.79822 5.29822 3 8.75 3H21.25ZM10 9.25C9.30965 9.25 8.75 9.80965 8.75 10.5V20.5C8.75 21.1904 9.30965 21.75 10 21.75C10.6903 21.75 11.25 21.1904 11.25 20.5V10.5C11.25 9.80965 10.6904 9.25 10 9.25ZM20 16.75C19.3096 16.75 18.75 17.3096 18.75 18V20.5C18.75 21.1904 19.3096 21.75 20 21.75C20.6904 21.75 21.25 21.1904 21.25 20.5V18C21.25 17.3096 20.6904 16.75 20 16.75ZM13.75 14.25C13.75 13.5596 14.3096 13 15 13C15.6904 13 16.25 13.5596 16.25 14.25V20.5C16.25 21.1904 15.6904 21.75 15 21.75C14.3096 21.75 13.75 21.1904 13.75 20.5V14.25Z" fill="#2C3E50"/>
</svg>
