<svg width="30" height="31" viewBox="0 0 30 31" fill="none" xmlns="http://www.w3.org/2000/svg">
<path opacity="0.5" d="M2.5 11.75C2.5 7.03595 2.5 4.67894 3.96446 3.21446C5.42894 1.75 7.78595 1.75 12.5 1.75H17.5C22.214 1.75 24.5711 1.75 26.0355 3.21446C27.5 4.67894 27.5 7.03595 27.5 11.75V16.75C27.5 21.464 27.5 23.8211 26.0355 25.2855C24.5711 26.75 22.214 26.75 17.5 26.75H12.5C7.78595 26.75 5.42894 26.75 3.96446 25.2855C2.5 23.8211 2.5 21.464 2.5 16.75V11.75Z" fill="#1C274D"/>
<path d="M7.5 16.6385V9.87057C7.5 8.8406 8.33174 8.00089 9.35896 8.0761C9.99959 8.12301 10.6949 8.20281 11.25 8.33845C12.2799 8.59009 13.5637 9.21384 14.3307 9.61644C14.3454 9.62412 14.3601 9.63152 14.375 9.63864V20.1577C14.3719 20.1561 14.3688 20.1545 14.3658 20.1528C13.6033 19.7511 12.2957 19.112 11.25 18.8565C10.7031 18.7228 10.0201 18.6433 9.38739 18.5962C8.34918 18.5188 7.5 17.6796 7.5 16.6385Z" fill="#1C274D"/>
<path d="M15.625 20.1578C15.6281 20.1561 15.6312 20.1545 15.6342 20.1529C16.3967 19.7511 17.7042 19.112 18.75 18.8565C19.2969 18.7229 19.9799 18.6434 20.6126 18.5963C21.6509 18.5189 22.5 17.6796 22.5 16.6385V9.81443C22.5 8.80679 21.7024 7.9777 20.696 8.02713C19.9256 8.06496 19.0505 8.15124 18.375 8.33849C17.4606 8.59195 16.344 9.18784 15.6524 9.58803C15.6434 9.59328 15.6341 9.59843 15.625 9.60346V20.1578Z" fill="#1C274D"/>
</svg>
