<svg width="25" height="25" viewBox="0 0 25 25" fill="none" xmlns="http://www.w3.org/2000/svg">
<path opacity="0.5" d="M2.08331 9.37508C2.08331 5.44671 2.08331 3.48253 3.3037 2.26213C4.52409 1.04175 6.48827 1.04175 10.4166 1.04175H14.5833C18.5116 1.04175 20.4759 1.04175 21.6962 2.26213C22.9166 3.48253 22.9166 5.44671 22.9166 9.37508V13.5417C22.9166 17.4701 22.9166 19.4344 21.6962 20.6547C20.4759 21.8751 18.5116 21.8751 14.5833 21.8751H10.4166C6.48827 21.8751 4.52409 21.8751 3.3037 20.6547C2.08331 19.4344 2.08331 17.4701 2.08331 13.5417V9.37508Z" fill="white"/>
<path d="M6.25 13.4488V7.80887C6.25 6.95056 6.94311 6.2508 7.79914 6.31348C8.33299 6.35257 8.91242 6.41907 9.375 6.5321C10.2332 6.7418 11.3031 7.26159 11.9423 7.59709C11.9545 7.6035 11.9668 7.60966 11.9792 7.61559V16.3815C11.9766 16.3801 11.974 16.3788 11.9715 16.3774C11.336 16.0426 10.2464 15.51 9.375 15.2971C8.91925 15.1858 8.35008 15.1195 7.82282 15.0802C6.95765 15.0158 6.25 14.3164 6.25 13.4488Z" fill="white"/>
<path d="M13.0208 16.3814C13.0234 16.38 13.026 16.3786 13.0285 16.3773C13.6639 16.0425 14.7535 15.5099 15.625 15.297C16.0807 15.1856 16.6499 15.1194 17.1772 15.0801C18.0424 15.0156 18.75 14.3163 18.75 13.4486V7.76192C18.75 6.92222 18.0853 6.23132 17.2466 6.2725C16.6047 6.30403 15.8754 6.37593 15.3125 6.53197C14.5505 6.74319 13.62 7.23976 13.0436 7.57325C13.0361 7.57763 13.0284 7.58192 13.0208 7.58612V16.3814Z" fill="white"/>
</svg>
