<svg width="30" height="31" viewBox="0 0 30 31" fill="none" xmlns="http://www.w3.org/2000/svg">
<path fill-rule="evenodd" clip-rule="evenodd" d="M26.0366 13.8942L25.3895 16.3091C24.6342 19.128 24.2565 20.5374 23.4004 21.4515C22.7244 22.1732 21.8495 22.6784 20.8865 22.9029C20.7661 22.931 20.644 22.9526 20.5188 22.968C19.3749 23.1091 17.9792 22.7351 15.4385 22.0544C12.6196 21.299 11.2102 20.9214 10.2961 20.0652C9.57431 19.3892 9.06921 18.5144 8.84466 17.5512C8.56026 16.3315 8.93791 14.9221 9.69322 12.1033L10.3403 9.68846C10.4489 9.28317 10.5497 8.90675 10.6453 8.55701C11.2141 6.47446 11.5964 5.32872 12.3294 4.54609C13.0054 3.82431 13.8802 3.31921 14.8434 3.09466C16.063 2.81026 17.4725 3.18791 20.2914 3.94322C23.1101 4.69854 24.5196 5.07619 25.4337 5.93234C26.1555 6.60835 26.6606 7.48321 26.8851 8.44629C27.1695 9.666 26.7919 11.0754 26.0366 13.8942ZM13.8155 12.7574C13.9495 12.2572 14.4636 11.9604 14.9637 12.0944L21.0007 13.7121C21.5009 13.8461 21.7976 14.3601 21.6636 14.8602C21.5296 15.3604 21.0156 15.6571 20.5155 15.5231L14.4784 13.9055C13.9782 13.7715 13.6815 13.2575 13.8155 12.7574ZM12.8445 16.3791C12.9785 15.879 13.4925 15.5822 13.9926 15.7162L17.6149 16.6869C18.115 16.8209 18.4117 17.3349 18.2777 17.835C18.1437 18.3351 17.6297 18.632 17.1296 18.498L13.5074 17.5274C13.0072 17.3934 12.7104 16.8792 12.8445 16.3791Z" fill="#2C3E50"/>
<path opacity="0.5" d="M20.5186 22.9681C20.258 23.766 19.7997 24.4879 19.1837 25.0649C18.2696 25.921 16.8601 26.2986 14.0414 27.054C11.2225 27.8092 9.81305 28.187 8.59332 27.9025C7.63026 27.678 6.7554 27.1729 6.07939 26.4511C5.22324 25.537 4.84559 24.1276 4.09027 21.3087L3.44322 18.894C2.68791 16.0751 2.31026 14.6656 2.59466 13.446C2.81921 12.4829 3.32431 11.608 4.04609 10.932C4.96019 10.0759 6.36961 9.6982 9.18846 8.94289C9.72175 8.8 10.2046 8.67061 10.6453 8.55668C10.6452 8.55681 10.6453 8.55655 10.6453 8.55668C10.5497 8.90641 10.4489 9.28321 10.3403 9.68851L9.69322 12.1033C8.93791 14.9221 8.56026 16.3316 8.84466 17.5514C9.06921 18.5144 9.57431 19.3892 10.2961 20.0652C11.2102 20.9214 12.6196 21.2991 15.4385 22.0544C17.9791 22.7351 19.3749 23.1091 20.5186 22.9681Z" fill="#2C3E50"/>
</svg>
