<svg width="25" height="25" viewBox="0 0 25 25" fill="none" xmlns="http://www.w3.org/2000/svg">
<path fill-rule="evenodd" clip-rule="evenodd" d="M21.6972 11.1619L21.1579 13.1743C20.5286 15.5234 20.2138 16.6979 19.5003 17.4596C18.937 18.0611 18.2079 18.482 17.4054 18.6691C17.3051 18.6925 17.2034 18.7106 17.099 18.7234C16.1457 18.841 14.9827 18.5293 12.8654 17.962C10.5164 17.3325 9.34184 17.0179 8.58009 16.3044C7.97861 15.7411 7.5577 15.012 7.37057 14.2094C7.13357 13.193 7.44828 12.0185 8.07771 9.66945L8.61691 7.65709C8.70741 7.31935 8.79147 7.00566 8.87107 6.71422C9.3451 4.97876 9.66366 4.02398 10.2745 3.37178C10.8378 2.7703 11.5669 2.34938 12.3695 2.16226C13.3859 1.92526 14.5604 2.23997 16.9095 2.86939C19.2585 3.49882 20.433 3.81353 21.1948 4.52699C21.7963 5.09033 22.2172 5.81938 22.4043 6.62195C22.6413 7.63837 22.3266 8.81289 21.6972 11.1619ZM11.5129 10.2145C11.6246 9.79774 12.053 9.5504 12.4698 9.66208L17.5006 11.0101C17.9174 11.1218 18.1647 11.5501 18.053 11.9669C17.9414 12.3837 17.513 12.631 17.0963 12.5193L12.0653 11.1713C11.6486 11.0596 11.4013 10.6313 11.5129 10.2145ZM10.7038 13.2326C10.8154 12.8159 11.2438 12.5686 11.6605 12.6802L14.6791 13.4891C15.0959 13.6008 15.3431 14.0291 15.2315 14.4459C15.1198 14.8626 14.6915 15.11 14.2747 14.9984L11.2562 14.1895C10.8394 14.0779 10.592 13.6494 10.7038 13.2326Z" fill="white"/>
<path opacity="0.5" d="M17.0988 18.7234C16.8816 19.3883 16.4998 19.9899 15.9864 20.4707C15.2247 21.1842 14.0501 21.4989 11.7011 22.1283C9.35204 22.7577 8.17752 23.0725 7.16108 22.8354C6.35853 22.6483 5.62948 22.2274 5.06613 21.6259C4.35268 20.8642 4.03797 19.6897 3.40854 17.3406L2.86933 15.3283C2.23991 12.9793 1.9252 11.8047 2.1622 10.7883C2.34932 9.98573 2.77024 9.25668 3.37172 8.69333C4.13347 7.97988 5.30799 7.66517 7.65703 7.03574C8.10144 6.91667 8.50382 6.80884 8.87103 6.7139C8.871 6.71401 8.87106 6.71379 8.87103 6.7139C8.79143 7.00534 8.70737 7.31934 8.61687 7.65709L8.07767 9.66944C7.44824 12.0184 7.13353 13.193 7.37053 14.2095C7.55766 15.012 7.97857 15.741 8.58005 16.3044C9.3418 17.0178 10.5163 17.3326 12.8654 17.962C14.9826 18.5293 16.1457 18.8409 17.0988 18.7234Z" fill="white"/>
</svg>
