<svg width="30" height="31" viewBox="0 0 30 31" fill="none" xmlns="http://www.w3.org/2000/svg">
<path opacity="0.5" fill-rule="evenodd" clip-rule="evenodd" d="M15.5346 3C14.1424 3 12.8744 3.75087 10.3385 5.25264L9.48083 5.76057C6.94493 7.26234 5.67698 8.01321 4.98083 9.25C4.28467 10.4868 4.28467 11.9886 4.28467 14.9921V16.0079C4.28467 19.0115 4.28467 20.5133 4.98083 21.75C5.67698 22.9867 6.94493 23.7376 9.48083 25.2394L10.3385 25.7474C12.8744 27.2491 14.1424 28 15.5346 28C16.927 28 18.1949 27.2491 20.7309 25.7474L21.5885 25.2394C24.1244 23.7376 25.3924 22.9867 26.0885 21.75C26.7846 20.5133 26.7846 19.0115 26.7846 16.0079V14.9921C26.7846 11.9886 26.7846 10.4868 26.0885 9.25C25.3924 8.01321 24.1244 7.26234 21.5885 5.76057L20.7309 5.25264C18.1949 3.75087 16.927 3 15.5346 3Z" fill="white"/>
<path d="M15.5346 10.8125C12.9459 10.8125 10.8472 12.9112 10.8472 15.5C10.8472 18.0889 12.9459 20.1875 15.5346 20.1875C18.1235 20.1875 20.2221 18.0889 20.2221 15.5C20.2221 12.9112 18.1235 10.8125 15.5346 10.8125Z" fill="white"/>
</svg>
