<svg width="24" height="24" viewBox="0 0 24 24" fill="none" xmlns="http://www.w3.org/2000/svg">
<path d="M13.7009 4.00034C13.8418 4.00054 13.9123 4.00064 13.9561 4.04456C14 4.08848 14 4.15902 14 4.3001V6.5C14 7.32843 14.6716 8 15.5 8C16.3284 8 17 7.32843 17 6.5V4.43252C17 4.27691 17 4.1991 17.0509 4.1543C17.1018 4.10951 17.1776 4.11922 17.3291 4.13864C18.4503 4.2824 19.2316 4.57539 19.8281 5.17188C20.9997 6.34345 21 8.22876 21 12C21 15.7712 20.9997 17.6566 19.8281 18.8281C18.6566 19.9997 16.7712 20 13 20H11C7.22876 20 5.34345 19.9997 4.17188 18.8281C3.0003 17.6566 3 15.7712 3 12C3 8.22876 3.0003 6.34345 4.17188 5.17188C4.76836 4.57539 5.54969 4.2824 6.67094 4.13864C6.82244 4.11922 6.89819 4.10951 6.94909 4.1543C7 4.1991 7 4.27691 7 4.43252V6.5C7 7.32843 7.67158 8 8.5 8C9.32843 8 10 7.32843 10 6.5V4.3001C10 4.15902 10 4.08848 10.0439 4.04456C10.0877 4.00064 10.1582 4.00054 10.2991 4.00034C10.5252 4.00002 10.7588 4 11 4H13C13.2412 4 13.4748 4.00002 13.7009 4.00034Z" fill="#337EC9" fill-opacity="0.5"/>
<path d="M8.5 2.5L8.5 6.5" stroke="#222222" stroke-linecap="round"/>
<path d="M15.5 2.5L15.5 6.5" stroke="#222222" stroke-linecap="round"/>
<circle cx="7.5" cy="10.5" r="0.5" fill="#222222"/>
<circle cx="10.5" cy="10.5" r="0.5" fill="#222222"/>
<circle cx="13.5" cy="10.5" r="0.5" fill="#222222"/>
<circle cx="16.5" cy="10.5" r="0.5" fill="#222222"/>
<circle cx="7.5" cy="13.5" r="0.5" fill="#222222"/>
<circle cx="10.5" cy="13.5" r="0.5" fill="#222222"/>
<circle cx="13.5" cy="13.5" r="0.5" fill="#222222"/>
<circle cx="16.5" cy="13.5" r="0.5" fill="#222222"/>
<circle cx="7.5" cy="16.5" r="0.5" fill="#222222"/>
<circle cx="10.5" cy="16.5" r="0.5" fill="#222222"/>
<circle cx="13.5" cy="16.5" r="0.5" fill="#222222"/>
<circle cx="16.5" cy="16.5" r="0.5" fill="#222222"/>
</svg>
