<svg width="12" height="12" viewBox="0 0 12 12" fill="none" xmlns="http://www.w3.org/2000/svg">
<path opacity="0.4" d="M6 11C8.7614 11 11 8.7614 11 6C11 3.23857 8.7614 1 6 1C3.23857 1 1 3.23857 1 6C1 8.7614 3.23857 11 6 11Z" fill="#292D32"/>
<path d="M5.36985 8.1401C5.27485 8.1401 5.17985 8.1051 5.10485 8.0301C4.95984 7.8851 4.95984 7.6451 5.10485 7.5001L6.60485 6.0001L5.10485 4.50008C4.95984 4.35508 4.95984 4.11508 5.10485 3.97008C5.24985 3.82508 5.48985 3.82508 5.63485 3.97008L7.39985 5.7351C7.54485 5.8801 7.54485 6.1201 7.39985 6.2651L5.63485 8.0301C5.55985 8.1051 5.46485 8.1401 5.36985 8.1401Z" fill="#292D32"/>
</svg>
