<svg width="50" height="50" viewBox="0 0 50 50" fill="none" xmlns="http://www.w3.org/2000/svg">
<g clip-path="url(#clip0_92_684)">
<path d="M29.4233 35.5027C29.813 32.6578 32.2292 29.8519 33.0086 29.0725C37.6462 24.5908 37.7631 17.2252 33.2814 12.5877C28.7997 7.95011 21.3952 7.8332 16.7576 12.3149C12.1201 16.7966 12.0031 24.2011 16.4848 28.8387L16.7576 29.1115C17.5371 29.8519 19.9533 32.6578 20.343 35.5417C20.4209 36.3991 20.4989 37.2564 20.4599 38.0748H29.2674C29.3063 37.2175 29.3453 36.3601 29.4233 35.5027Z" fill="#FFECBA"/>
<path d="M29.3064 38.8543H20.46C20.2651 38.8543 20.0703 38.7763 19.9144 38.6204C19.7585 38.4645 19.6805 38.2697 19.6805 38.0748C19.6805 37.2564 19.6416 36.438 19.5636 35.6197C19.2129 33.0865 17.0305 30.4755 16.2121 29.6571L15.9393 29.3843C13.601 27.007 12.354 23.8504 12.4319 20.4988C12.5099 17.1473 13.8349 14.0686 16.2121 11.7303C18.5894 9.39206 21.746 8.14498 25.0975 8.22293C28.4101 8.2619 31.5278 9.62589 33.8661 12.0031C36.2043 14.3804 37.4514 17.537 37.3735 20.8886C37.3345 24.2011 35.9705 27.3188 33.5933 29.6571C32.8138 30.3975 30.5925 33.0476 30.2417 35.6197C30.1638 36.438 30.0858 37.2564 30.1248 38.0748C30.1248 38.2697 30.0469 38.4645 29.891 38.6204C29.6961 38.7763 29.5013 38.8543 29.3064 38.8543ZM21.2394 37.2954H28.527C28.527 36.6719 28.6049 36.0483 28.6439 35.4248C29.1505 31.8005 32.4241 28.6048 32.4631 28.5659C34.5675 26.5394 35.7367 23.8114 35.7756 20.8886C35.8146 17.9657 34.7234 15.1988 32.6969 13.1333C30.6704 11.0289 27.9424 9.85972 25.0196 9.82074C22.1357 9.7428 19.3688 10.834 17.3033 12.8605C15.1989 14.887 14.0297 17.615 13.9908 20.5378C13.9518 23.4607 15.043 26.2276 17.0695 28.2931L17.3033 28.5269C17.3423 28.5659 20.6159 31.8005 21.1225 35.3858C21.2004 36.0483 21.2394 36.6719 21.2394 37.2954Z" fill="black"/>
<path d="M20.421 44.0764C20.3041 46.6875 22.2527 48.9478 24.9027 49.2206C27.5138 48.9868 29.5013 46.7264 29.3844 44.0764C29.3844 42.1278 29.3064 39.9065 29.3064 38.0359H20.46C20.499 39.9065 20.421 42.1278 20.421 44.0764Z" fill="#B2DAF6"/>
<path d="M24.9027 50H24.8247C21.785 49.7272 19.5246 47.1161 19.6415 44.0764C19.6415 43.1801 19.6415 42.2447 19.6805 41.3484C19.6805 40.2572 19.7195 39.0881 19.7195 38.0748C19.7195 37.88 19.7974 37.6851 19.9533 37.5292C20.1092 37.3734 20.3041 37.2954 20.4989 37.2954H29.3454C29.5402 37.2954 29.7351 37.3734 29.891 37.5292C30.0468 37.6851 30.1248 37.88 30.1248 38.0748C30.1248 39.0491 30.1248 40.1793 30.1638 41.2705C30.1638 42.2058 30.2027 43.1801 30.2027 44.0764C30.3196 47.1161 28.0593 49.7272 24.9806 50H24.9027ZM21.2394 38.8543C21.2394 39.6727 21.2394 40.53 21.2004 41.3484C21.2004 42.2837 21.1614 43.219 21.1614 44.0764V44.1154C21.0835 46.2977 22.6813 48.1684 24.8637 48.4412C27.0461 48.2073 28.6829 46.3367 28.5659 44.1154C28.5659 43.1801 28.5659 42.2447 28.527 41.3094C28.527 40.491 28.488 39.6337 28.488 38.8543H21.2394Z" fill="black"/>
<path d="M30.9431 38.8543H18.4723C18.0436 38.8543 17.6929 38.5035 17.6929 38.0748C17.6929 37.6462 18.0436 37.2954 18.4723 37.2954H30.9431C31.3717 37.2954 31.7225 37.6462 31.7225 38.0748C31.7225 38.5035 31.3717 38.8543 30.9431 38.8543ZM29.3842 42.0499H20.4209C19.9922 42.0499 19.6414 41.6992 19.6414 41.2705C19.6414 40.8418 19.9922 40.491 20.4209 40.491H29.3842C29.8129 40.491 30.1636 40.8418 30.1636 41.2705C30.1636 41.6992 29.8129 42.0499 29.3842 42.0499ZM29.3842 44.8948H20.4209C19.9922 44.8948 19.6414 44.544 19.6414 44.1154C19.6414 43.6867 19.9922 43.3359 20.4209 43.3359H29.3842C29.8129 43.3359 30.1636 43.6867 30.1636 44.1154C30.1636 44.544 29.8129 44.8948 29.3842 44.8948Z" fill="black"/>
<path d="M23.3827 38.8542C22.954 38.8542 22.6033 38.5035 22.6033 38.0748C22.6033 37.9969 22.4863 31.021 22.4863 27.8644H22.2915C21.3172 27.8644 20.6157 27.5916 20.1481 27.085C19.7194 26.6563 19.5245 26.0327 19.5635 25.2923C19.6025 24.6687 19.9142 23.2658 22.0187 23.2658C22.6422 23.2658 23.1488 23.4217 23.4606 23.7724C24.0452 24.357 24.0452 25.2143 24.0062 26.2276V26.2666H25.5651V25.721C25.5651 24.1621 26.4614 23.3048 28.0592 23.3048C28.7217 23.3048 29.2673 23.5776 29.657 24.0452C29.9688 24.4349 30.1637 24.9805 30.1637 25.5261C30.1637 26.6952 29.3842 27.9034 27.9813 27.9034H27.1239V38.0748C27.1239 38.5035 26.7732 38.8542 26.3445 38.8542C25.9158 38.8542 25.5651 38.5035 25.5651 38.0748V27.9034H24.0062C24.0452 31.021 24.1231 37.9969 24.1231 38.0748C24.1621 38.5035 23.8503 38.8542 23.3827 38.8542ZM27.1629 26.3445H28.0202C28.5269 26.3445 28.6438 25.7599 28.6438 25.5261C28.6438 25.3313 28.6048 25.1364 28.4879 25.0195C28.4489 24.9415 28.332 24.8636 28.0982 24.8636C27.2798 24.8636 27.1629 25.0585 27.1629 25.721V26.3445ZM22.0187 24.8636C21.1613 24.8636 21.1613 25.1364 21.1223 25.4482C21.1223 25.721 21.1613 25.9548 21.2782 26.0717C21.4341 26.2276 21.8238 26.3445 22.2915 26.3445H22.4863V26.3055C22.4863 25.7989 22.4863 25.0585 22.3694 24.9415C22.3305 24.9026 22.2525 24.8636 22.0187 24.8636ZM16.251 21.2783C15.8223 21.2783 15.4715 20.9275 15.4715 20.4988C15.4715 15.6664 19.4466 11.6913 24.318 11.6913C24.7467 11.6913 25.0974 12.0421 25.0974 12.4708C25.0974 12.8995 24.7467 13.2502 24.318 13.2502C20.304 13.2502 17.0304 16.5238 17.0304 20.4988C17.0304 20.9275 16.6796 21.2783 16.251 21.2783ZM7.48244 21.7069H4.8324C4.40372 21.7069 4.05298 21.3562 4.05298 20.9275C4.05298 20.4988 4.40372 20.1481 4.8324 20.1481H7.48244C7.91112 20.1481 8.26186 20.4988 8.26186 20.9275C8.26186 21.3562 7.91112 21.7069 7.48244 21.7069ZM45.1676 21.7069H42.5175C42.0888 21.7069 41.7381 21.3562 41.7381 20.9275C41.7381 20.4988 42.0888 20.1481 42.5175 20.1481H45.1676C45.5962 20.1481 45.947 20.4988 45.947 20.9275C45.947 21.3562 45.5962 21.7069 45.1676 21.7069ZM25.0195 4.16991C24.5908 4.16991 24.24 3.81917 24.24 3.39049V0.779423C24.24 0.35074 24.5908 0 25.0195 0C25.4481 0 25.7989 0.35074 25.7989 0.779423V3.42946C25.7989 3.85815 25.4481 4.16991 25.0195 4.16991Z" fill="black"/>
<path d="M11.4574 10.0156C11.2626 10.0156 11.0677 9.93764 10.9118 9.78176L9.0412 7.91114C8.72943 7.59937 8.72943 7.13172 9.0412 6.81995C9.35297 6.50818 9.82062 6.50818 10.1324 6.81995L12.003 8.69056C12.3148 9.00233 12.3148 9.46999 12.003 9.78176C11.8471 9.93764 11.6523 10.0156 11.4574 10.0156Z" fill="black"/>
<path d="M38.1527 10.0156C37.9579 10.0156 37.763 9.93764 37.6071 9.78176C37.2953 9.46999 37.2953 9.00233 37.6071 8.69056L39.4777 6.81995C39.7895 6.50818 40.2572 6.50818 40.5689 6.81995C40.8807 7.13172 40.8807 7.59937 40.5689 7.91114L38.6983 9.78176C38.5424 9.93764 38.3476 10.0156 38.1527 10.0156Z" fill="black"/>
</g>
<defs>
<clipPath id="clip0_92_684">
<rect width="50" height="50" fill="white"/>
</clipPath>
</defs>
</svg>
